<svg xmlns="http://www.w3.org/2000/svg" version="1.1" xmlns:xlink="http://www.w3.org/1999/xlink" xmlns:svgjs="http://svgjs.dev/svgjs" width="2000" height="1500" viewBox="0 0 2000 1500"><rect width="2000" height="1500" fill="#0080ff"></rect><g transform="matrix(0.75,0,0,0.75,249.09090911300575,596.0278297492691)"><svg viewBox="0 0 396 81" data-background-color="#0080ff" preserveAspectRatio="xMidYMid meet" height="409" width="2000" xmlns="http://www.w3.org/2000/svg" xmlns:xlink="http://www.w3.org/1999/xlink"><defs></defs><g id="tight-bounds" transform="matrix(1,0,0,1,0.2400000058335081,0.1576889103214114)"><svg viewBox="0 0 395.52 80.68462209803707" height="80.68462209803707" width="395.52"><g><svg viewBox="0 0 554.883904361648 113.19427116632005" height="80.68462209803707" width="395.52"><g><rect width="7.386379298311566" height="98.28735557133433" x="132.64145360178773" y="7.4534577974928595" fill="#ffffff" opacity="1" stroke-width="0" stroke="transparent" fill-opacity="1" class="rect-o-0" data-fill-palette-color="primary" rx="1%" id="o-0" data-palette-color="#ffffff"></rect></g><g transform="matrix(1,0,0,1,159.3639043616479,15.64407076177072)"><svg viewBox="0 0 395.52000000000004 81.90612964277861" height="81.90612964277861" width="395.52000000000004"><g><svg viewBox="0 0 395.52000000000004 81.90612964277861" height="81.90612964277861" width="395.52000000000004"><g><svg viewBox="0 0 395.52000000000004 81.90612964277861" height="81.90612964277861" width="395.52000000000004"><g transform="matrix(1,0,0,1,0,0)"><svg width="395.52000000000004" viewBox="3.740476131439209 -36.483333587646484 177.85604858398438 36.83333206176758" height="81.90612964277861" data-palette-color="#ffffff"><path d="M39.3-3.35L39.3-3.35Q39.25-1.9 38.2-0.9 37.15 0.1 35.7 0.05 34.25 0 33.25-1.05 32.25-2.1 32.3-3.55L32.3-3.55Q32.4-6.8 32.2-22.75L32.2-22.75Q28.5-18.1 24.9-12.8L24.9-12.8Q24.05-11.6 22.65-11.33 21.25-11.05 20.05-11.85L20.05-11.85Q19.9-11.95 19.8-12.05L19.8-12.05Q19.25-12.4 18.85-12.9L18.85-12.9 11.15-22.6Q11.2-22.5 11.18-13.03 11.15-3.55 11.15-3.5L11.15-3.5Q11.15-2.05 10.13-1.03 9.1 0 7.65 0 6.2 0 5.18-1.03 4.15-2.05 4.15-3.5L4.15-3.5Q4.15-5.6 4.17-10.55 4.2-15.5 4.2-18.2 4.2-20.9 4.1-24.9L4.1-24.9Q4-28.45 3.75-32.25L3.75-32.25Q3.65-33.7 4.6-34.8 5.55-35.9 7-36L7-36Q7.75-36.05 8.4-35.8L8.4-35.8Q9.8-35.6 10.65-34.45L10.65-34.45 21.75-20.5Q27.15-28 32.75-34L32.75-34Q33.8-35.8 35.85-35.75L35.85-35.75Q37.3-35.7 38.3-34.65 39.3-33.6 39.25-32.15L39.25-32.15Q39.1-27.4 39.25-17.63 39.4-7.85 39.3-3.35L39.3-3.35ZM43.6-2.05L43.6-2.05Q43-3.4 43.55-4.7L43.55-4.7 54.75-33.55Q55.15-34.5 56-35.1 56.85-35.7 57.9-35.75L57.9-35.75Q59-35.95 60.07-35.38 61.15-34.8 61.7-33.75L61.7-33.75 65.4-24.55 69.75-13.8 73.2-4.8Q73.75-3.45 73.17-2.13 72.6-0.8 71.22-0.25 69.85 0.3 68.5-0.28 67.15-0.85 66.6-2.15L66.6-2.15 63.7-8.75Q58.1-8.9 52.6-8.65L52.6-8.65 50.15-2.05Q49.55-0.75 48.2-0.18 46.85 0.4 45.5-0.18 44.15-0.75 43.6-2.05L43.6-2.05ZM55.5-15.8L55.5-15.8Q57.4-15.8 61-15.8L61-15.8 58.35-23 55.5-15.8ZM84.55-3.15L84.55-3.15Q84.55-1.7 83.52-0.68 82.5 0.35 81.05 0.35 79.6 0.35 78.57-0.68 77.55-1.7 77.55-3.15 77.55-4.6 77.45-17.7 77.35-30.8 77.5-32.25L77.5-32.25Q77.55-33.7 78.6-34.68 79.65-35.65 81.1-35.65L81.1-35.65Q81.35-35.65 81.6-35.6L81.6-35.6Q81.7-35.6 81.85-35.65L81.85-35.65Q87.95-36.65 91.4-36.45L91.4-36.45Q98.2-36 101.7-31.7L101.7-31.7Q104.4-28.4 104.45-24.65 104.5-20.9 102.1-18.35L102.1-18.35Q100.15-16.2 97.2-15 94.25-13.8 91.2-13.65L91.2-13.65Q90.2-13.6 89.05-13.65 87.9-13.7 86.27-13.85 84.65-14 84.45-14.05L84.45-14.05Q84.55-6.5 84.55-3.15L84.55-3.15ZM90.9-20.65L90.9-20.65Q92.75-20.7 94.4-21.38 96.05-22.05 96.85-23L96.85-23Q97.25-23.45 97.4-23.83 97.55-24.2 97.32-25.25 97.1-26.3 96.3-27.3L96.3-27.3Q94.7-29.25 90.95-29.45L90.95-29.45Q88.45-29.6 84.45-29L84.45-29Q84.4-25.65 84.4-21.05L84.4-21.05 84.45-21.05 86.8-20.8Q88.1-20.7 89.05-20.65 90-20.6 90.9-20.65L90.9-20.65ZM110.64 0.15L110.64 0.15Q109.19 0.15 108.14-0.83 107.09-1.8 107.04-3.25L107.04-3.25Q107.04-4.55 107.87-5.58 108.69-6.6 109.94-6.8L109.94-6.8Q109.99-15.5 109.89-28.85L109.89-28.85Q108.69-29.1 107.89-30.05 107.09-31 107.09-32.3L107.09-32.3Q107.09-33.75 108.14-34.75 109.19-35.75 110.64-35.75L110.64-35.75 116.29-35.7Q117.74-35.7 118.74-34.65 119.74-33.6 119.74-32.15L119.74-32.15Q119.74-30.9 118.92-29.95 118.09-29 116.84-28.75L116.84-28.75Q116.99-15.6 116.94-6.95L116.94-6.95Q118.19-6.75 119.02-5.8 119.84-4.85 119.89-3.6L119.89-3.6Q119.89-2.15 118.92-1.1 117.94-0.05 116.49 0L116.49 0 110.64 0.15ZM126.04-3.5L126.04-3.5Q126.04-4.55 126.07-10.43 126.09-16.3 126.07-18.45 126.04-20.6 125.97-24.78 125.89-28.95 125.74-32.25L125.74-32.25Q125.69-33.7 126.67-34.75 127.64-35.8 129.09-35.9L129.09-35.9 129.34-35.9Q136.24-36 147.94-35.9L147.94-35.9Q149.34-35.9 150.39-34.85L150.39-34.85Q151.39-33.8 151.39-32.38 151.39-30.95 150.34-29.93 149.29-28.9 147.84-28.9L147.84-28.9Q138.54-29 132.84-28.95L132.84-28.95Q132.94-25.75 132.99-22.25L132.99-22.25Q140.04-22.25 145.99-22.4L145.99-22.4Q147.44-22.4 148.49-21.4 149.54-20.4 149.56-18.98 149.59-17.55 148.59-16.5 147.59-15.45 146.19-15.4L146.19-15.4Q140.19-15.3 133.04-15.25L133.04-15.25 133.04-3.5Q133.04-2.05 132.02-1.03 130.99 0 129.54 0 128.09 0 127.07-1.03 126.04-2.05 126.04-3.5L126.04-3.5ZM163.69-3.3L163.69-3.3Q163.69-4.55 163.66-6.73 163.64-8.9 163.64-10.15L163.64-10.15 163.64-13 158.64-21.3Q154.94-27.35 153.14-30.75L153.14-30.75Q152.44-32 152.84-33.38 153.24-34.75 154.51-35.45 155.79-36.15 157.16-35.75 158.54-35.35 159.24-34.05L159.24-34.05Q160.89-31.1 166.74-21.4L166.74-21.4 169.44-25.6 175.14-34.2Q175.89-35.4 177.29-35.75 178.69-36.1 179.91-35.33 181.14-34.55 181.49-33.15 181.84-31.75 181.04-30.5L181.04-30.5Q180.74-30 175.24-21.7L175.24-21.7Q172.29-17.25 170.59-14.25L170.59-14.25Q170.64-13.1 170.64-9.2 170.64-5.3 170.69-3.5L170.69-3.5Q170.74-2.05 169.74-1 168.74 0.05 167.29 0.1 165.84 0.15 164.79-0.85 163.74-1.85 163.69-3.3L163.69-3.3Z" opacity="1" transform="matrix(1,0,0,1,0,0)" fill="#ffffff" class="undefined-text-0" data-fill-palette-color="primary" id="text-0"></path></svg></g></svg></g></svg></g></svg></g><g><svg viewBox="0 0 113.30538214023913 113.19427116632005" height="113.19427116632005" width="113.30538214023913"><g><svg xmlns="http://www.w3.org/2000/svg" xmlns:xlink="http://www.w3.org/1999/xlink" version="1.1" x="0" y="0" viewBox="8.08668041229248 8.183040618896484 83.83028411865234 83.74807739257812" enable-background="new 0 0 100 100" xml:space="preserve" height="113.19427116632005" width="113.30538214023913" class="icon-icon-0" data-fill-palette-color="accent" id="icon-0"><path d="M90.9 13.6c2.4-4.8 0.4-6.8-4.4-4.4L11.7 46.6c-4.8 2.4-5 6.7 0.5 7.5l19.5 2c7.4 0.8 11.7 4.8 12.4 12.4l2 19.5c0.6 5 5.1 5.3 7.5 0.5L90.9 13.6z" fill="#ffffff" data-fill-palette-color="accent"></path></svg></g></svg></g></svg></g></svg><rect width="395.52" height="80.68462209803707" fill="none" stroke="none" visibility="hidden"></rect></g></svg></g></svg>